<mxfile host="app.diagrams.net" agent="Mozilla/5.0 (Windows NT 10.0; Win64; x64) AppleWebKit/537.36 (KHTML, like Gecko) Chrome/132.0.0.0 Safari/537.36" version="26.0.11">
  <diagram name="Página-1" id="CEJxs4QXML5ttT-iYVlk">
    <mxGraphModel dx="1725" dy="566" grid="1" gridSize="10" guides="1" tooltips="1" connect="1" arrows="1" fold="1" page="1" pageScale="1" pageWidth="827" pageHeight="1169" math="0" shadow="0">
      <root>
        <mxCell id="0" />
        <mxCell id="1" parent="0" />
        <mxCell id="YI8qZAI8sFxIkvRVpKfF-1" value="&lt;table border=&quot;1&quot; width=&quot;100%&quot; height=&quot;100%&quot; cellpadding=&quot;4&quot; style=&quot;width:100%;height:100%;border-collapse:collapse;&quot;&gt;&lt;tbody&gt;&lt;tr&gt;&lt;th align=&quot;center&quot;&gt;&lt;b&gt;Gestão&lt;/b&gt;&lt;/th&gt;&lt;/tr&gt;&lt;tr&gt;&lt;td&gt;- id : int;&lt;br&gt;- nome: string;&lt;br&gt;- cpf: int;&lt;br&gt;- senha: string;&lt;br&gt;- email: string;&lt;br&gt;- numeroTelefone: string;&lt;/td&gt;&lt;/tr&gt;&lt;tr&gt;&lt;td&gt;- cadastrarTurmas(): void;&lt;br&gt;+ cadastrarAluno(): void;&lt;br&gt;- cadastrarProfessor(): void;&lt;br&gt;- alterarTerceiros(): void;&lt;br&gt;- gerarAtestados() : string;&lt;br&gt;- gerarRelatorios(): string;&lt;br&gt;- gerarCompMat(): string;&lt;br&gt;+ gerarCompFreq() : string;&lt;br&gt;- gerarHistorico(): string;&lt;br&gt;&lt;/td&gt;&lt;/tr&gt;&lt;/tbody&gt;&lt;/table&gt;" style="text;html=1;whiteSpace=wrap;strokeColor=none;fillColor=none;overflow=fill;" parent="1" vertex="1">
          <mxGeometry x="-60" y="240" width="180" height="300" as="geometry" />
        </mxCell>
        <mxCell id="YI8qZAI8sFxIkvRVpKfF-2" value="&lt;table border=&quot;1&quot; width=&quot;100%&quot; height=&quot;100%&quot; cellpadding=&quot;4&quot; style=&quot;width:100%;height:100%;border-collapse:collapse;&quot;&gt;&lt;tbody&gt;&lt;tr&gt;&lt;th align=&quot;center&quot;&gt;&lt;b&gt;Coordenação&lt;/b&gt;&lt;/th&gt;&lt;/tr&gt;&lt;tr&gt;&lt;td&gt;- id : int;&lt;br&gt;- nome: string;&lt;br&gt;- cpf: int;&lt;br&gt;- senha: int;&lt;br&gt;- email: string;&lt;br&gt;- numeroTelefone: string;&lt;/td&gt;&lt;/tr&gt;&lt;tr&gt;&lt;td&gt;+ cadastrarTurma(): void;&lt;br&gt;+ cadastrarAluno(): void;&lt;br&gt;- gerarBoletim(): string;&lt;/td&gt;&lt;/tr&gt;&lt;/tbody&gt;&lt;/table&gt;" style="text;html=1;whiteSpace=wrap;strokeColor=none;fillColor=none;overflow=fill;" parent="1" vertex="1">
          <mxGeometry x="560" y="140" width="180" height="180" as="geometry" />
        </mxCell>
        <mxCell id="YI8qZAI8sFxIkvRVpKfF-3" value="&lt;table border=&quot;1&quot; width=&quot;100%&quot; height=&quot;100%&quot; cellpadding=&quot;4&quot; style=&quot;width:100%;height:100%;border-collapse:collapse;&quot;&gt;&lt;tbody&gt;&lt;tr&gt;&lt;th align=&quot;center&quot;&gt;Professor&lt;/th&gt;&lt;/tr&gt;&lt;tr&gt;&lt;td&gt;- id : int;&lt;br&gt;- nome: string;&lt;br&gt;- cpf: int;&lt;br&gt;- senha: int;&lt;br&gt;- email: string;&lt;br&gt;- numeroTelefone: string;&lt;span style=&quot;&quot;&gt;&lt;br&gt;- turnoTrabalho: string;&lt;br&gt;- disciplinasMinistradas: string;&lt;/span&gt;&lt;/td&gt;&lt;/tr&gt;&lt;tr&gt;&lt;td&gt;+ lançarNotas(): void;&lt;br&gt;+ lançarNotas(): void;&lt;br&gt;+ lancarPlanAulas(): void;&lt;br&gt;+ gerarCompFreq(): string;&lt;/td&gt;&lt;/tr&gt;&lt;/tbody&gt;&lt;/table&gt;" style="text;html=1;whiteSpace=wrap;strokeColor=none;fillColor=none;overflow=fill;" parent="1" vertex="1">
          <mxGeometry x="350" y="70" width="200" height="240" as="geometry" />
        </mxCell>
        <mxCell id="YI8qZAI8sFxIkvRVpKfF-4" value="&lt;table border=&quot;1&quot; width=&quot;100%&quot; height=&quot;100%&quot; cellpadding=&quot;4&quot; style=&quot;width:100%;height:100%;border-collapse:collapse;&quot;&gt;&lt;tbody&gt;&lt;tr&gt;&lt;th align=&quot;center&quot;&gt;&lt;b&gt;Login&lt;/b&gt;&lt;/th&gt;&lt;/tr&gt;&lt;tr&gt;&lt;td&gt;- id: int;&lt;br&gt;- senha: string;&lt;/td&gt;&lt;/tr&gt;&lt;tr&gt;&lt;td&gt;- efetuarLogin(): void;&lt;/td&gt;&lt;/tr&gt;&lt;/tbody&gt;&lt;/table&gt;" style="text;html=1;whiteSpace=wrap;strokeColor=none;fillColor=none;overflow=fill;" parent="1" vertex="1">
          <mxGeometry x="80" y="20" width="180" height="180" as="geometry" />
        </mxCell>
        <mxCell id="YI8qZAI8sFxIkvRVpKfF-5" value="&lt;table border=&quot;1&quot; width=&quot;100%&quot; height=&quot;100%&quot; cellpadding=&quot;4&quot; style=&quot;width:100%;height:100%;border-collapse:collapse;&quot;&gt;&lt;tbody&gt;&lt;tr&gt;&lt;th align=&quot;center&quot;&gt;&lt;b&gt;Aluno&lt;/b&gt;&lt;/th&gt;&lt;/tr&gt;&lt;tr&gt;&lt;td&gt;&lt;span style=&quot;&quot;&gt;- id : int;&lt;/span&gt;&lt;br style=&quot;&quot;&gt;&lt;span style=&quot;&quot;&gt;- nome: string;&lt;/span&gt;&lt;br style=&quot;&quot;&gt;&lt;span style=&quot;&quot;&gt;- cpf: int;&lt;br&gt;- rg: int;&lt;br&gt;&lt;/span&gt;&lt;span style=&quot;&quot;&gt;- senha: int;&lt;/span&gt;&lt;br style=&quot;&quot;&gt;&lt;span style=&quot;&quot;&gt;- email: string;&lt;/span&gt;&lt;br style=&quot;&quot;&gt;&lt;span style=&quot;&quot;&gt;- numeroTelefone: string;&lt;br&gt;&lt;/span&gt;&lt;span style=&quot;&quot;&gt;- numeroMatricula: string;&lt;br&gt;- nomeResponsaveis: string;&lt;br&gt;- rgResponsaveis: int;&lt;br&gt;- numeroNIS: int;&lt;br&gt;- contatoResponsaveis: string;&lt;br&gt;- endereco: string;&lt;br&gt;- cartaoSUS: int;&lt;br&gt;&lt;/span&gt;&lt;/td&gt;&lt;/tr&gt;&lt;tr&gt;&lt;td&gt;&lt;br&gt;&lt;/td&gt;&lt;/tr&gt;&lt;/tbody&gt;&lt;/table&gt;" style="text;html=1;whiteSpace=wrap;strokeColor=none;fillColor=none;overflow=fill;" parent="1" vertex="1">
          <mxGeometry x="1020" y="110" width="180" height="310" as="geometry" />
        </mxCell>
        <mxCell id="YI8qZAI8sFxIkvRVpKfF-6" value="&lt;table border=&quot;1&quot; width=&quot;100%&quot; height=&quot;100%&quot; cellpadding=&quot;4&quot; style=&quot;width:100%;height:100%;border-collapse:collapse;&quot;&gt;&lt;tbody&gt;&lt;tr&gt;&lt;th align=&quot;center&quot;&gt;Lançar Notas&lt;/th&gt;&lt;/tr&gt;&lt;tr&gt;&lt;td&gt;- numeroMatricula: string;&lt;br&gt;&amp;nbsp;- nome: string;&lt;br&gt;- disciplina: string;&lt;br&gt;- notas: float;&lt;/td&gt;&lt;/tr&gt;&lt;tr&gt;&lt;td&gt;- lancarNotas(): void;&lt;/td&gt;&lt;/tr&gt;&lt;/tbody&gt;&lt;/table&gt;" style="text;html=1;whiteSpace=wrap;strokeColor=none;fillColor=none;overflow=fill;" parent="1" vertex="1">
          <mxGeometry x="790" y="120" width="180" height="180" as="geometry" />
        </mxCell>
        <mxCell id="YI8qZAI8sFxIkvRVpKfF-7" value="&lt;table border=&quot;1&quot; width=&quot;100%&quot; height=&quot;100%&quot; cellpadding=&quot;4&quot; style=&quot;width:100%;height:100%;border-collapse:collapse;&quot;&gt;&lt;tbody&gt;&lt;tr&gt;&lt;th align=&quot;center&quot;&gt;&lt;b&gt;Lançar Frequência&lt;/b&gt;&lt;/th&gt;&lt;/tr&gt;&lt;tr&gt;&lt;td&gt;- data completa: string;&lt;br&gt;- nomeAluno: string;&lt;br&gt;- nomeDisciplina: string;&lt;br&gt;- nomeProfessor: string;&lt;br&gt;- quantidadeFaltas: int;&lt;br&gt;- quantidadePresenca: int;&lt;/td&gt;&lt;/tr&gt;&lt;tr&gt;&lt;td&gt;- lancarFrequencia(): void;&lt;/td&gt;&lt;/tr&gt;&lt;/tbody&gt;&lt;/table&gt;" style="text;html=1;whiteSpace=wrap;strokeColor=none;fillColor=none;overflow=fill;" parent="1" vertex="1">
          <mxGeometry x="200" y="520" width="180" height="180" as="geometry" />
        </mxCell>
        <mxCell id="YI8qZAI8sFxIkvRVpKfF-8" value="&lt;table border=&quot;1&quot; width=&quot;100%&quot; height=&quot;100%&quot; cellpadding=&quot;4&quot; style=&quot;width:100%;height:100%;border-collapse:collapse;&quot;&gt;&lt;tbody&gt;&lt;tr&gt;&lt;th align=&quot;center&quot;&gt;Cadastro das Aulas&lt;/th&gt;&lt;/tr&gt;&lt;tr&gt;&lt;td&gt;- dataCompleta: string;&lt;br&gt;- nomeAssunto: stirng;&lt;br&gt;- numeroAula: int;&lt;br&gt;- disciplina: string;&lt;br&gt;- nomeProfessor: string;&lt;br&gt;- materiaisUtilizados: string;&lt;/td&gt;&lt;/tr&gt;&lt;tr&gt;&lt;td&gt;- cadastrarAulas(): void;&lt;/td&gt;&lt;/tr&gt;&lt;/tbody&gt;&lt;/table&gt;" style="text;html=1;whiteSpace=wrap;strokeColor=none;fillColor=none;overflow=fill;" parent="1" vertex="1">
          <mxGeometry x="790" y="310" width="180" height="180" as="geometry" />
        </mxCell>
        <mxCell id="YI8qZAI8sFxIkvRVpKfF-9" value="&lt;table border=&quot;1&quot; width=&quot;100%&quot; height=&quot;100%&quot; cellpadding=&quot;4&quot; style=&quot;width:100%;height:100%;border-collapse:collapse;&quot;&gt;&lt;tr&gt;&lt;th align=&quot;center&quot;&gt;&lt;b&gt;Title&lt;/b&gt;&lt;/th&gt;&lt;/tr&gt;&lt;tr&gt;&lt;td align=&quot;center&quot;&gt;Section 1.1&#xa;Section 1.2&#xa;Section 1.3&lt;/td&gt;&lt;/tr&gt;&lt;tr&gt;&lt;td align=&quot;center&quot;&gt;Section 2.1&#xa;Section 2.2&#xa;Section 2.3&lt;/td&gt;&lt;/tr&gt;&lt;/table&gt;" style="text;html=1;whiteSpace=wrap;strokeColor=none;fillColor=none;overflow=fill;" parent="1" vertex="1">
          <mxGeometry x="420" y="330" width="180" height="180" as="geometry" />
        </mxCell>
      </root>
    </mxGraphModel>
  </diagram>
</mxfile>
